<?xml version="1.0" encoding="UTF-8" standalone="no"?>
<!-- Uploaded to: SVG Repo, www.svgrepo.com, Generator: SVG Repo Mixer Tools -->

<svg
   width="716.66699"
   height="716.66699"
   viewBox="0 0 21.50001 21.50001"
   fill="none"
   version="1.1"
   id="svg1"
   sodipodi:docname="clipboard-list-svgrepo-com.svg"
   inkscape:version="1.3 (0e150ed6c4, 2023-07-21)"
   xmlns:inkscape="http://www.inkscape.org/namespaces/inkscape"
   xmlns:sodipodi="http://sodipodi.sourceforge.net/DTD/sodipodi-0.dtd"
   xmlns="http://www.w3.org/2000/svg"
   xmlns:svg="http://www.w3.org/2000/svg">
  <defs
     id="defs1" />
  <sodipodi:namedview
     id="namedview1"
     pagecolor="#505050"
     bordercolor="#eeeeee"
     borderopacity="1"
     inkscape:showpageshadow="0"
     inkscape:pageopacity="0"
     inkscape:pagecheckerboard="0"
     inkscape:deskcolor="#d1d1d1"
     inkscape:zoom="0.83875"
     inkscape:cx="324.88823"
     inkscape:cy="358.86736"
     inkscape:window-width="1366"
     inkscape:window-height="900"
     inkscape:window-x="74"
     inkscape:window-y="739"
     inkscape:window-maximized="0"
     inkscape:current-layer="svg1" />
  <path
     fill-rule="evenodd"
     clip-rule="evenodd"
     d="M 6.012605,2.010455 C 6.132195,0.880445 7.088285,5e-6 8.250005,5e-6 h 5 c 1.1617,0 2.1178,0.88044 2.2374,2.01045 0.7631,0.01554 1.4229,0.05501 1.9862,0.1585 0.758,0.13923 1.4031,0.40447 1.9281,0.9294 0.6019,0.60192 0.8608,1.35979 0.9818,2.2599 0.1165,0.86697 0.1165,1.96929 0.1165,3.33688 v 6.10977 c 0,1.3676 0,2.4699 -0.1165,3.3369 -0.121,0.9001 -0.3799,1.6579 -0.9818,2.2599 -0.602,0.6019 -1.3598,0.8608 -2.2599,0.9818 -0.867,0.1165 -1.969299,0.1165 -3.336899,0.1165 H 7.695135 c -1.36759,0 -2.46991,0 -3.33688,-0.1165 -0.90011,-0.121 -1.65798,-0.3799 -2.2599,-0.9818 -0.60192,-0.602 -0.86081,-1.3598 -0.98183,-2.2599 -0.11655998,-0.867 -0.11653998,-1.9693 -0.11652,-3.3369 v -6.10977 c -1.998e-5,-1.36759 -3.998e-5,-2.46991 0.11652,-3.33688 0.12102,-0.90011 0.37991,-1.65798 0.98183,-2.2599 0.52493,-0.52493 1.17,-0.79017 1.928,-0.9294 0.56338,-0.10349 1.22317,-0.14296 1.98625,-0.1585 z m 0.00236,1.50042 c -0.71818,0.01533 -1.2716,0.05147 -1.71761,0.13339 -0.56681,0.10412 -0.89489,0.2713 -1.13834,0.51475 -0.27676,0.27676 -0.45721,0.66534 -0.55586,1.39911 -0.10156,0.75535 -0.10315,1.75646 -0.10315,3.19188 v 6 c 0,1.4354 0.00159,2.4365 0.10315,3.1919 0.09865,0.7338 0.2791,1.1223 0.55586,1.3991 0.27676,0.2768 0.66534,0.4572 1.39911,0.5559 0.75535,0.1015 1.75646,0.1031 3.19188,0.1031 h 6.000001 c 1.4354,0 2.436499,-0.0016 3.191899,-0.1031 0.7338,-0.0987 1.1223,-0.2791 1.3991,-0.5559 0.2768,-0.2768 0.4572,-0.6653 0.5559,-1.3991 0.1015,-0.7554 0.1031,-1.7565 0.1031,-3.1919 v -6 c 0,-1.43542 -0.0016,-2.43653 -0.1031,-3.19188 -0.0987,-0.73378 -0.2791,-1.12235 -0.5559,-1.39911 -0.2435,-0.24345 -0.5715,-0.41063 -1.1383,-0.51475 -0.4461,-0.08192 -0.9995,-0.11806 -1.717699,-0.13339 -0.129201,1.11975 -1.080601,1.98913 -2.235,1.98913 H 8.250005 c -1.15441,0 -2.10576,-0.86938 -2.23504,-1.98913 z m 2.23504,-2.01087 c -0.41421,0 -0.75,0.33579 -0.75,0.75 v 1 c 0,0.41421 0.33579,0.75 0.75,0.75 h 5 c 0.4142,0 0.75,-0.33579 0.75,-0.75 v -1 c 0,-0.41421 -0.3358,-0.75 -0.75,-0.75 z m -3.25,7.75 c 0,-0.4142 0.33579,-0.75 0.75,-0.75 h 0.5 c 0.41421,0 0.75,0.3358 0.75,0.75 0,0.4142 -0.33579,0.75 -0.75,0.75 h -0.5 c -0.41421,0 -0.75,-0.3358 -0.75,-0.75 z m 3.5,0 c 0,-0.4142 0.3358,-0.75 0.75,-0.75 h 6.5 c 0.4142,0 0.75,0.3358 0.75,0.75 0,0.4142 -0.3358,0.75 -0.75,0.75 h -6.5 c -0.4142,0 -0.75,-0.3358 -0.75,-0.75 z m -3.5,3.5 c 0,-0.4142 0.33579,-0.75 0.75,-0.75 h 0.5 c 0.41421,0 0.75,0.3358 0.75,0.75 0,0.4142 -0.33579,0.75 -0.75,0.75 h -0.5 c -0.41421,0 -0.75,-0.3358 -0.75,-0.75 z m 3.5,0 c 0,-0.4142 0.3358,-0.75 0.75,-0.75 h 6.5 c 0.4142,0 0.75,0.3358 0.75,0.75 0,0.4142 -0.3358,0.75 -0.75,0.75 h -6.5 c -0.4142,0 -0.75,-0.3358 -0.75,-0.75 z m -3.5,3.5 c 0,-0.4142 0.33579,-0.75 0.75,-0.75 h 0.5 c 0.41421,0 0.75,0.3358 0.75,0.75 0,0.4142 -0.33579,0.75 -0.75,0.75 h -0.5 c -0.41421,0 -0.75,-0.3358 -0.75,-0.75 z m 3.5,0 c 0,-0.4142 0.3358,-0.75 0.75,-0.75 h 6.5 c 0.4142,0 0.75,0.3358 0.75,0.75 0,0.4142 -0.3358,0.75 -0.75,0.75 h -6.5 c -0.4142,0 -0.75,-0.3358 -0.75,-0.75 z"
     fill="#1c274c"
     id="path1"
     style="fill:#ffffff" />
</svg>
