<?xml version="1.0" encoding="UTF-8" standalone="no"?>
<!-- Created with Inkscape (http://www.inkscape.org/) -->

<svg
   width="600"
   height="600"
   viewBox="0 0 158.75 158.75"
   version="1.1"
   id="svg1"
   xml:space="preserve"
   inkscape:version="1.3 (0e150ed6c4, 2023-07-21)"
   sodipodi:docname="PyCryptool.svg"
   xmlns:inkscape="http://www.inkscape.org/namespaces/inkscape"
   xmlns:sodipodi="http://sodipodi.sourceforge.net/DTD/sodipodi-0.dtd"
   xmlns="http://www.w3.org/2000/svg"
   xmlns:svg="http://www.w3.org/2000/svg"><sodipodi:namedview
     id="namedview1"
     pagecolor="#000000"
     bordercolor="#eeeeee"
     borderopacity="1"
     inkscape:showpageshadow="0"
     inkscape:pageopacity="0"
     inkscape:pagecheckerboard="0"
     inkscape:deskcolor="#d1d1d1"
     inkscape:document-units="px"
     inkscape:zoom="0.62003367"
     inkscape:cx="416.91284"
     inkscape:cy="250.79283"
     inkscape:window-width="1440"
     inkscape:window-height="871"
     inkscape:window-x="0"
     inkscape:window-y="0"
     inkscape:window-maximized="1"
     inkscape:current-layer="layer1" /><defs
     id="defs1"><linearGradient
       id="swatch2"
       inkscape:swatch="solid"><stop
         style="stop-color:#ffffff;stop-opacity:1;"
         offset="0"
         id="stop2" /></linearGradient></defs><g
     inkscape:label="Camada 1"
     inkscape:groupmode="layer"
     id="layer1"
     transform="translate(-38.405174,-67.422417)"><rect
       style="opacity:1;fill:#ffffff;fill-opacity:1;stroke-width:1.35045"
       id="rect2"
       width="158.75"
       height="158.75"
       x="38.405174"
       y="67.422417"
       ry="10.805166" /><g
       id="g10"
       transform="translate(-0.8877032,-0.79375004)"><g
         id="g3"
         transform="translate(0,8.1603834)"><circle
           style="opacity:1;fill:#0066ff;fill-opacity:1;stroke-width:1"
           id="path3"
           cx="118.66788"
           cy="131.99467"
           r="60.951385" /><g
           id="Group_16"
           data-name="Group 16"
           style="fill:#ffffff"
           transform="matrix(2.5033138,0,0,2.5033138,78.614856,91.940873)"><path
             id="Path_53"
             data-name="Path 53"
             d="M 26,12 H 24 V 7 H 23.931 A 7.993,7.993 0 0 0 8.069,7 H 8 v 5 H 6 a 2,2 0 0 0 -2,2 v 16 a 2,2 0 0 0 2,2 h 20 a 2,2 0 0 0 2,-2 V 14 A 2,2 0 0 0 26,12 Z M 12,8 a 4,4 0 0 1 8,0 v 4 H 12 Z M 23,28 H 9 A 1,1 0 0 1 8,27 V 17 a 1,1 0 0 1 1,-1 h 14 a 1,1 0 0 1 1,1 v 10 a 1,1 0 0 1 -1,1 z"
             fill="#040505"
             style="fill:#ffffff" /><circle
             id="Ellipse_1"
             data-name="Ellipse 1"
             cx="2"
             cy="2"
             r="2"
             transform="translate(14,20)"
             fill="#040505"
             style="fill:#ffffff" /></g></g><g
         id="g9"
         transform="translate(-22.153046,-5.0548585)"><path
           d="m 103.84753,209.70092 h 3.74239 q 1.66915,0 2.55936,0.74379 0.89606,0.73794 0.89606,2.10839 0,1.37632 -0.89606,2.12011 -0.89021,0.73794 -2.55936,0.73794 h -1.48758 v 3.03374 h -2.25481 z m 2.25481,1.634 v 2.44222 h 1.24746 q 0.65594,0 1.0132,-0.31626 0.35725,-0.32211 0.35725,-0.90778 0,-0.58566 -0.35725,-0.90192 -0.35726,-0.31626 -1.0132,-0.31626 z m 5.80393,0.55053 h 2.09667 l 1.76285,4.45104 1.4993,-4.45104 h 2.09668 l -2.75848,7.18024 q -0.41582,1.09519 -0.9722,1.52858 -0.55052,0.43925 -1.4583,0.43925 h -1.21233 v -1.37631 h 0.65595 q 0.53295,0 0.77307,-0.16984 0.24598,-0.16985 0.38068,-0.60909 l 0.0586,-0.18156 z m 15.70751,6.07919 q -0.6208,0.32212 -1.29432,0.4861 -0.67351,0.16399 -1.40559,0.16399 -2.18453,0 -3.46128,-1.21818 -1.27675,-1.22404 -1.27675,-3.31486 0,-2.09668 1.27675,-3.31486 1.27675,-1.22404 3.46128,-1.22404 0.73208,0 1.40559,0.16399 0.67352,0.16398 1.29432,0.4861 v 1.8097 q -0.62666,-0.42753 -1.23575,-0.62666 -0.60909,-0.19913 -1.28261,-0.19913 -1.20646,0 -1.89755,0.77308 -0.69108,0.77308 -0.69108,2.13182 0,1.35288 0.69108,2.12596 0.69109,0.77308 1.89755,0.77308 0.67352,0 1.28261,-0.19913 0.60909,-0.19913 1.23575,-0.62666 z m 6.64729,-4.29292 q -0.27527,-0.12884 -0.55053,-0.18741 -0.2694,-0.0644 -0.54467,-0.0644 -0.80821,0 -1.24746,0.52124 -0.43339,0.51538 -0.43339,1.48173 v 3.02203 h -2.09668 v -6.55944 h 2.09668 v 1.07762 q 0.40411,-0.64423 0.92535,-0.93706 0.5271,-0.29869 1.25918,-0.29869 0.10541,0 0.2284,0.0117 0.12299,0.006 0.35726,0.0351 z m 0.18155,-1.78627 h 2.09668 l 1.76285,4.45104 1.4993,-4.45104 h 2.09668 l -2.75848,7.18024 q -0.41582,1.09519 -0.9722,1.52858 -0.55053,0.43925 -1.45831,0.43925 h -1.21232 v -1.37631 h 0.65594 q 0.53296,0 0.77308,-0.16984 0.24598,-0.16985 0.38068,-0.60909 l 0.0586,-0.18156 z m 10.77622,5.61066 v 3.4437 h -2.09668 v -9.05436 h 2.09668 v 0.96049 q 0.43339,-0.57395 0.96049,-0.84336 0.5271,-0.27526 1.21233,-0.27526 1.21232,0 1.99125,0.96634 0.77894,0.96049 0.77894,2.47736 0,1.51687 -0.77894,2.48322 -0.77893,0.96049 -1.99125,0.96049 -0.68523,0 -1.21233,-0.26941 -0.5271,-0.27526 -0.96049,-0.84921 z m 1.39388,-4.24606 q -0.67351,0 -1.03662,0.49781 -0.35726,0.49196 -0.35726,1.42316 0,0.93121 0.35726,1.42902 0.36311,0.49196 1.03662,0.49196 0.67352,0 1.02491,-0.49196 0.35726,-0.49195 0.35726,-1.42902 0,-0.93706 -0.35726,-1.42902 -0.35139,-0.49195 -1.02491,-0.49195 z m 7.38523,-3.22701 v 1.86241 h 2.1611 v 1.4993 h -2.1611 v 2.7819 q 0,0.45682 0.18155,0.62081 0.18156,0.15813 0.72037,0.15813 h 1.07762 v 1.4993 h -1.79799 q -1.24161,0 -1.76285,-0.51539 -0.51538,-0.52124 -0.51538,-1.76285 v -2.7819 h -1.04248 v -1.4993 h 1.04248 v -1.86241 z m 6.56529,3.20358 q -0.69694,0 -1.06591,0.50367 -0.36311,0.49781 -0.36311,1.44073 0,0.94292 0.36311,1.44659 0.36897,0.49782 1.06591,0.49782 0.68523,0 1.04834,-0.49782 0.36311,-0.50367 0.36311,-1.44659 0,-0.94292 -0.36311,-1.44073 -0.36311,-0.50367 -1.04834,-0.50367 z m 0,-1.4993 q 1.69257,0 2.64134,0.91363 0.95464,0.91364 0.95464,2.53007 0,1.61644 -0.95464,2.53007 -0.94877,0.91364 -2.64134,0.91364 -1.69843,0 -2.65892,-0.91364 -0.95463,-0.91363 -0.95463,-2.53007 0,-1.61643 0.95463,-2.53007 0.96049,-0.91363 2.65892,-0.91363 z m 8.24029,1.4993 q -0.69694,0 -1.0659,0.50367 -0.36312,0.49781 -0.36312,1.44073 0,0.94292 0.36312,1.44659 0.36896,0.49782 1.0659,0.49782 0.68523,0 1.04834,-0.49782 0.36311,-0.50367 0.36311,-1.44659 0,-0.94292 -0.36311,-1.44073 -0.36311,-0.50367 -1.04834,-0.50367 z m 0,-1.4993 q 1.69257,0 2.64135,0.91363 0.95463,0.91364 0.95463,2.53007 0,1.61644 -0.95463,2.53007 -0.94878,0.91364 -2.64135,0.91364 -1.69842,0 -2.65891,-0.91364 -0.95463,-0.91363 -0.95463,-2.53007 0,-1.61643 0.95463,-2.53007 0.96049,-0.91363 2.65891,-0.91363 z m 5.11871,-2.39537 h 2.09667 v 9.11294 h -2.09667 z"
           id="path4"
           style="font-weight:bold;font-size:11.9944px;font-family:'DejaVu Sans';-inkscape-font-specification:'DejaVu Sans Bold';text-align:center;text-anchor:middle;fill:#0066ff"
           aria-label="PyCryptool" /><text
           xml:space="preserve"
           style="font-weight:bold;font-size:11.9944px;font-family:'DejaVu Sans';-inkscape-font-specification:'DejaVu Sans Bold';text-align:center;text-anchor:middle;opacity:1;fill:#008033;fill-opacity:1;stroke-width:1"
           x="111.16248"
           y="218.26041"
           id="text9"><tspan
             sodipodi:role="line"
             id="tspan9"
             style="stroke-width:1"
             x="111.16248"
             y="218.26041">Py</tspan></text></g></g></g></svg>
